<?xml version="1.0" encoding="UTF-8"?>
<svg width="112px" height="20px" viewBox="0 0 112 20" version="1.1" xmlns="http://www.w3.org/2000/svg" xmlns:xlink="http://www.w3.org/1999/xlink">
    <!-- Generator: Sketch 53.1 (72631) - https://sketchapp.com -->
    <title>govky-logo</title>
    <desc>Created with Sketch.</desc>
    <defs>
        <polygon id="path-1" points="0 0 19.4428 0 19.4428 19.9999 0 19.9999"></polygon>
        <polygon id="path-3" points="0.5586 0.0002 22.0066 0.0002 22.0066 20 0.5586 20"></polygon>
    </defs>
    <g id="govky-logo" stroke="none" stroke-width="1" fill="none" fill-rule="evenodd">
        <g id="Group-15">
            <g id="Group-3">
                <mask id="mask-2" fill="white">
                    <use xlink:href="#path-1"></use>
                </mask>
                <g id="Clip-2"></g>
                <path d="M13.5928,9.4429 L19.1358,9.4429 L19.1358,17.4929 C16.9628,18.9419 13.3708,19.9999 10.5848,19.9999 C4.4568,19.9999 -0.0002,15.7659 -0.0002,9.9719 C-0.0002,4.2059 4.6238,-0.0001 11.0018,-0.0001 C14.0388,-0.0001 17.3528,1.1699 19.4428,3.0079 L15.7938,7.4379 C14.4838,6.1839 12.5898,5.3759 10.9748,5.3759 C8.4678,5.3759 6.6288,7.3259 6.6288,9.9719 C6.6288,12.6739 8.4958,14.6239 11.0298,14.6239 C11.6988,14.6239 12.6458,14.3729 13.5928,13.9829 L13.5928,9.4429 Z" id="Fill-1" fill="#E0E1E2" mask="url(#mask-2)"></path>
            </g>
            <g id="Group-6" transform="translate(20.000000, 0.000000)">
                <mask id="mask-4" fill="white">
                    <use xlink:href="#path-3"></use>
                </mask>
                <g id="Clip-5"></g>
                <path d="M7.1876,9.9722 C7.1876,12.6462 9.1376,14.6242 11.3656,14.6242 C13.5946,14.6242 15.3766,12.6462 15.3766,9.9722 C15.3766,7.2982 13.5946,5.3762 11.3656,5.3762 C9.1096,5.3762 7.1876,7.2982 7.1876,9.9722 M22.0066,9.9442 C22.0066,15.7382 17.4946,20.0002 11.2826,20.0002 C5.0706,20.0002 0.5586,15.7652 0.5586,9.9442 C0.5586,4.1502 5.0706,0.0002 11.2826,0.0002 C17.4946,0.0002 22.0066,4.1782 22.0066,9.9442" id="Fill-4" fill="#E0E1E2" mask="url(#mask-4)"></path>
            </g>
            <polygon id="Fill-7" fill="#E0E1E2" points="48.9163 0.1949 52.9553 13.0079 56.9663 0.1949 63.5683 0.1949 56.1033 19.7209 49.4183 19.7209 42.0083 0.1949"></polygon>
            <path d="M68.4447,17.0752 C68.4447,18.7742 67.2747,19.9442 65.5757,19.9442 C63.9047,19.9442 62.7347,18.7742 62.7347,17.0752 C62.7347,15.4042 63.9047,14.2342 65.5757,14.2342 C67.2747,14.2342 68.4447,15.4042 68.4447,17.0752" id="Fill-9" fill="#E0E1E2"></path>
            <polygon id="Fill-11" fill="#E0E1E2" points="83.0972 19.7212 79.0302 13.0082 77.1362 15.1252 77.1362 19.7212 70.6732 19.7212 70.6732 0.1952 77.1362 0.1952 77.1362 6.9632 82.9582 0.1952 90.3942 0.1952 83.4312 8.0502 90.8132 19.7212"></polygon>
            <polygon id="Fill-13" fill="#E0E1E2" points="104.129 13.649 104.129 19.721 97.667 19.721 97.667 13.789 90.536 0.195 96.97 0.195 100.898 7.715 104.686 0.195 111.12 0.195"></polygon>
        </g>
    </g>
</svg>